PathFileType	4	(X/Y/Z)	C:/Users/beibeiliu/ov580/test_trc/User1\sequence.7_training_dense_right.trc
DataRate	CameraRate	NumFrames	NumMarkers	Units	OrigDataRate	OrigDataStartFrame	OrigNumFrames
120	120	10	19	mm	120	28	55
Frame#	Time	ThumbCMC			ThumbMCP			ThumbIP			ThumbTip			IndexMCP			IndexPIP			IndexTip			MiddleMCP			MiddlePIP			MiddleTip			RingMCP			RingPIP			RingTip			PinkyMCP			PinkyPIP			PinkyTip			BackHand1			BackHand2			BackHand3	
		X0	Y0	Z0	X1	Y1	Z1	X2	Y2	Z2	X3	Y3	Z3	X4	Y4	Z4	X5	Y5	Z5	X6	Y6	Z6	X7	Y7	Z7	X8	Y8	Z8	X9	Y9	Z9	X10	Y10	Z10	X11	Y11	Z11	X12	Y12	Z12	X13	Y13	Z13	X14	Y14	Z14	X15	Y15	Z15	X16	Y16	Z16	X17	Y17	Z17	X18	Y18	Z18	
27	0.225	217.281	73.2902	100.065	223.527	87.8366	77.9257	238.012	93.7983	51.3621	248.639	105.942	41.676	182.784	70.6883	16.831	157.568	87.8974	24.7791	168.839	88.5964	60.7938	165.733	53.7275	18.078	141.584	74.6937	34.7123	162.178	72.0255	70.0684	149.67	38.0561	28.5152	135.352	65.3239	45.8887	151.752	54.9517	75.3147	139.753	24.2703	41.5734	125.901	48.5219	54.2992	152.641	47.4854	79.1491	187.884	11.8299	68.7188	198.563	10.8533	107.596	215.001	36.3462	81.7608	
28	0.233333	213.56	86.2537	105.637	220.718	103.704	84.563	232.006	114.841	67.4317	244.083	130.764	57.6637	194.338	88.6635	19.9076	165.395	97.8353	24.9646	171.524	94.9437	63.3839	180.437	65.6233	17.7441	153.158	81.573	29.4776	163.666	77.0455	69.3021	165.374	48.6078	24.4604	142.616	65.2181	41.0195	157.117	60.8875	70.8421	158.571	30.0571	36.8797	140.846	50.8916	48.4464	154.463	50.5427	77.6579	204.867	25.0069	72.5386	206.6	20.3232	109.546	223.617	54.5871	88.0898	
29	0.241667	192.957	98.4362	114.864	188.882	119.802	95.9703	197.802	142.192	79.2988	201.901	159.241	68.8829	182.254	100.187	26.0408	153.329	96.8748	28.8485	154.911	91.3663	64.0576	180.286	76.0005	19.9312	148.304	75.85	32.8191	158.706	76.601	71.5419	176.306	53.1174	26.1344	145.724	59.211	41.5683	160.44	58.9059	72.3913	176.377	34.0175	36.2398	148.776	42.8081	47.9475	159.289	44.959	77.713	215.921	44.3837	73.8535	217.593	36.0951	111.239	217.548	77.7661	99.2847	
30	0.25	168.47	101.073	117.243	155.342	118.481	100.356	150.806	137.998	86.2672	144.633	154.89	78.8774	161.857	105.92	33.2561	138.989	82.7577	32.9548	140.794	77.1077	66.0418	172.169	80.3994	24.7383	142.527	63.76	34.6788	153.045	63.0709	71.9735	176.887	57.5934	26.5406	148.308	48.4947	41.4078	164.965	48.9532	73.911	185.571	41.6022	36.9818	159.903	37.5097	48.3331	167.471	41.2264	77.2793	215.904	63.2119	78.1148	217.498	56.7838	112.082	202.186	91.9661	104.124	
31	0.258333	148.124	87.4265	117.535	127.532	98.9924	96.9527	115.391	113.842	84.043	99.7249	128.067	77.6559	148.371	88.693	32.9075	130.975	58.526	34.2255	137.902	57.1032	69.3459	163.872	70.0387	24.2471	145.609	42.6784	35.168	151.134	49.6931	75.9713	175.728	52.6232	28.8931	157.509	30.8725	45.0843	164.204	40.6137	74.7916	193.928	39.8772	38.5932	171.437	26.4503	49.9243	175.933	38.2351	79.7025	207.025	76.2798	79.5283	211.163	71.9365	117.29	185.136	92.9061	103.619	
32	0.266667	133.628	72.0317	115.918	112.15	73.3026	91.3964	95.2268	82.9182	74.761	78.9387	87.6546	65.8815	141.348	64.599	29.6151	131.701	30.1427	36.5218	135.619	35.9585	68.2037	163.175	53.2819	26.7854	148.846	21.5813	39.6277	155.434	32.3062	77.5869	180.633	39.5613	32.2163	165.807	14.6564	49.1878	171.843	30.1788	80.5423	199.308	35.017	42.9502	184.093	11.7391	56.7294	182.154	33.313	84.4513	201.476	76.6833	79.8952	204.409	73.957	114.275	170.423	88.0723	97.155	
33	0.275	128.855	61.0041	110.706	107.162	56.6577	92.039	90.6066	60.8045	71.2595	72.8066	66.1523	59.5774	135.251	39.9679	27.7576	133.136	10.3721	39.2247	136.604	23.0169	72.6466	164.674	32.7523	29.523	149.999	2.91609	45.4357	149.346	18.8162	80.8757	179.473	18.1513	37.0436	166.988	-1.52709	58.9173	170.085	17.0637	85.3336	197.538	16.8681	48.0027	182.098	-0.539112	66.2625	178.789	24.1599	93.3595	195.06	68.3877	77.8066	195.002	70.482	111.131	159.384	77.999	96.8266	
34	0.283333	129.121	64.3887	107.966	105.002	65.5277	88.1227	94.2029	66.1076	68.7832	74.8759	74.5729	55.3822	132.257	30.1613	32.5288	116.966	4.24822	50.3363	124.242	20.7228	78.7244	147.116	16.5264	32.8575	133.57	-5.07929	53.9388	139.944	18.4321	87.6219	164.343	4.30514	43.8862	149.927	-10.8836	67.5106	154.955	15.9011	92.7306	182.413	-1.89038	56.3913	164.977	-11.3159	77.8284	165.533	16.3308	95.8779	193.072	49.1796	78.7435	193.766	58.4972	112.992	161.842	71.263	90.9476	
35	0.291667	136.192	74.1674	110.129	113.743	82.949	84.8875	100.795	88.6349	65.0069	89.2168	93.2619	50.0645	114.629	33.4479	33.8902	101.663	13.0574	52.7401	109.609	30.0527	82.3704	128.94	11.0924	37.1037	109.57	-0.241414	63.1137	127.442	19.5752	92.2875	143.455	-4.83462	50.4929	121.216	-5.97493	78.0619	142.63	14.5957	97.9473	153.531	-14.3995	62.3426	137.291	-13.7474	82.4363	151.102	11.6672	100.188	185.39	35.8643	76.1179	194.094	45.0453	112.388	169.401	64.3868	88.7142	
36	0.3	146.671	77.0308	101.59	128.854	90.2551	83.4194	118.501	99.3894	54.7926	108.548	109.814	43.462	110.762	37.2869	32.7839	86.203	29.2113	52.5099	105.452	38.7093	80.4905	113.022	17.7567	37.7457	92.9159	12.0366	63.3003	116.394	30.8794	92.1281	121.5	-2.58212	51.699	103.048	2.6015	81.1927	128.873	17.6223	96.1072	133.118	-17.8324	65.3378	114.268	-8.17229	90.8835	133.001	11.3286	101.979	174.75	19.7472	75.0548	188.489	29.7043	103.598	172.346	55.5203	86.8064	
